<svg xmlns="http://www.w3.org/2000/svg" xmlns:xlink="http://www.w3.org/1999/xlink" preserveAspectRatio="xMidYMid" width="146" height="137" viewBox="0 0 146 137">
  <defs>
    <style>

      .cls-2 {
        fill: #999999;
      }
    </style>

  </defs>
  <path d="M72.665,-0.005 C72.665,-0.005 89.819,52.242 89.819,52.242 C89.819,52.242 145.333,52.242 145.333,52.242 C145.333,52.242 100.422,84.531 100.422,84.531 C100.422,84.531 117.577,136.775 117.577,136.775 C117.577,136.775 72.665,104.486 72.665,104.486 C72.665,104.486 27.753,136.775 27.753,136.775 C27.753,136.775 44.909,84.531 44.909,84.531 C44.909,84.531 -0.004,52.242 -0.004,52.242 C-0.004,52.242 55.511,52.242 55.511,52.242 C55.511,52.242 72.665,-0.005 72.665,-0.005 Z" id="path-1" class="cls-2" fill-rule="evenodd"/>
</svg>
