<svg xmlns="http://www.w3.org/2000/svg" xmlns:xlink="http://www.w3.org/1999/xlink" preserveAspectRatio="xMidYMid" width="19" height="9" viewBox="0 0 19 9">
  <defs>
    <style>

      .cls-2 {
        fill: #ffffff;
      }
    </style>
  </defs>
  <path d="M17.858,0.302 C17.573,-0.037 17.068,-0.081 16.726,0.201 C16.726,0.201 9.018,6.582 9.018,6.582 C9.018,6.582 1.310,0.201 1.310,0.201 C0.969,-0.081 0.463,-0.036 0.179,0.302 C-0.106,0.641 -0.060,1.145 0.281,1.426 C0.281,1.426 8.503,8.235 8.503,8.235 C8.652,8.357 8.835,8.420 9.018,8.420 C9.201,8.420 9.384,8.357 9.533,8.235 C9.533,8.235 17.756,1.426 17.756,1.426 C18.096,1.145 18.142,0.641 17.858,0.302 Z" id="path-1" class="cls-2" fill-rule="evenodd"/>
</svg>
